<?xml version="1.0" encoding="utf-8"?>
<!-- Svg Vector Icons : http://www.onlinewebfonts.com/icon -->
<!DOCTYPE svg PUBLIC "-//W3C//DTD SVG 1.1//EN" "http://www.w3.org/Graphics/SVG/1.1/DTD/svg11.dtd">
<svg version="1.1" xmlns="http://www.w3.org/2000/svg" xmlns:xlink="http://www.w3.org/1999/xlink" x="0px" y="0px" viewBox="0 0 256 256" enable-background="new 0 0 256 256" xml:space="preserve">
<metadata> Svg Vector Icons : http://www.onlinewebfonts.com/icon </metadata>
<g><g><path fill="#000000" d="M121.2,122.6"/><path fill="#000000" d="M121.2,122.6"/><path fill="#000000" d="M122.5,175.8c0-12,3.6-23.2,9.9-32.6H51.8c-4.3,0-7.8-3.4-7.8-7.6c0-4.2,3.5-7.5,7.8-7.5h95c10.3-7.7,23.2-12.2,37.2-12.2c5.2,0,10.2,0.6,15,1.8V27.9c0-9.8-8.2-17.9-18.3-17.9H28.3C18.2,10,10,18,10,27.9v187.8c0,9.8,8.2,17.8,18.3,17.8h139.4C141.7,226.6,122.5,203.4,122.5,175.8z M51.8,56.7h105.3c4.3,0,7.7,3.4,7.7,7.6c0,4.2-3.5,7.5-7.7,7.5H51.8c-4.3,0-7.8-3.4-7.8-7.5C44.1,60.1,47.5,56.7,51.8,56.7z M51.8,92.4h105.3c4.3,0,7.7,3.4,7.7,7.5c0,4.2-3.5,7.6-7.7,7.6H51.8c-4.3,0-7.8-3.4-7.8-7.6C44.1,95.8,47.5,92.4,51.8,92.4z M244.2,233.5l-19.7-23.6c-0.7-0.8-1.6-1.5-2.5-1.9c7.7-8.6,12.3-19.9,12.3-32.2c0-27.2-22.6-49.3-50.6-49.3c-27.9,0-50.6,22.1-50.6,49.3c0,27.3,22.7,49.3,50.6,49.3c10.1,0,19.5-2.9,27.4-7.9c0.3,0.9,0.8,1.7,1.4,2.5l19.7,23.6c2.8,3.2,7.7,3.6,11,0.9C246.5,241.6,246.9,236.8,244.2,233.5z M183.7,214.5c-21.9,0-39.7-17.4-39.7-38.8c0-21.4,17.8-38.7,39.7-38.7c22,0,39.7,17.4,39.7,38.7C223.4,197.2,205.6,214.5,183.7,214.5z"/></g></g>
</svg>