<?xml version="1.0" encoding="utf-8"?>
<!-- Svg Vector Icons : http://www.onlinewebfonts.com/icon -->
<!DOCTYPE svg PUBLIC "-//W3C//DTD SVG 1.1//EN" "http://www.w3.org/Graphics/SVG/1.1/DTD/svg11.dtd">
<svg version="1.1" xmlns="http://www.w3.org/2000/svg" xmlns:xlink="http://www.w3.org/1999/xlink" x="0px" y="0px" viewBox="0 0 256 256" enable-background="new 0 0 256 256" xml:space="preserve">
<metadata> Svg Vector Icons : http://www.onlinewebfonts.com/icon </metadata>
<g><g><g><path fill="#000000" d="M121.8,10.6c-6.6,1.5-12,4.7-16.8,9.8c-3,3.2-7,9.8-7,11.5c0,1.6-1.1,0.7-3.9-3.5c-3.7-5.4-5.3-6.5-9.5-6.5c-4.6,0-5.4,0.8-12.1,10.8c-3.2,4.8-6.2,9.6-6.6,10.6c-0.7,1.8-0.8,5.6-0.9,40.7l-0.1,38.7l-9,5c-4.9,2.8-9.3,5.5-9.6,6c-0.6,0.8-0.7,2.6-0.7,8.3c0,7.1,0,7.3,1.2,8.4c1.1,1.2,1.2,1.2,9.7,1.2h8.5v3.9c0,4.7,0.8,6.9,2.6,7.6c0.8,0.3,7.3,0.5,18,0.4c20.7-0.2,18.7,0.8,19.1-9.3l0.3-7l3-7.4l3-7.4H128h17.1l3.2,7.8l3.1,7.8l0,6.3c0,6,0,6.4,1.1,7.6l1.1,1.3l16.8,0.1c10.7,0.1,17.2,0,18-0.4c1.8-0.7,2.6-3,2.6-7.6v-3.9h6.4c6.1,0,6.5,0,7.7-1.1l1.3-1.1l0.1-6.9c0.1-5.2,0-7.2-0.5-8.2c-0.4-0.7-3.2-2.7-7.7-5.4l-7.1-4.3l-0.2-39.6c-0.2-35.7-0.3-39.8-1-41.5c-0.4-1.1-3.4-5.9-6.6-10.6c-6.6-10-7.6-10.8-12.1-10.8c-4.3,0-6,1.2-9.6,6.6c-2.8,4.2-3.9,5.2-3.9,3.5c0-0.4-0.8-2.3-1.8-4.3c-3.6-7.2-10.8-13.4-18.7-16C132.9,10,126.1,9.6,121.8,10.6z M133.6,18.4c8.8,1.9,15.6,8.7,17.4,17.2c0.3,1.7,0.5,12.6,0.5,33.6v31.1l-1.8-1l-1.8-1.1V80.4c0-19.7-0.3-23-2.8-29.5c-2.4-6.5-8.4-14.5-11.9-16.2c-3-1.5-7.8-1.5-10.6,0.1c-2.6,1.5-7.9,8.3-10.2,13.1c-3.7,7.7-3.8,8.5-4.1,30.7l-0.1,19.6l-1.6,0.7c-0.9,0.5-1.7,0.8-1.8,0.8c-0.5,0-0.2-61.8,0.3-64.2C107.6,23.2,120.2,15.6,133.6,18.4z M90.7,37.5l5.7,8.6l0.1,29.2l0.1,29.2l-1.7,1c-0.9,0.6-6.1,3.5-11.6,6.6l-9.9,5.6l-0.1-35.9l-0.1-35.9l5.6-8.5c3.1-4.7,5.8-8.5,5.9-8.5C84.8,28.8,87.6,32.7,90.7,37.5z M177.2,37.4l5.6,8.5l-0.1,36.6l-0.1,36.6l-10.9-6.5c-6-3.6-11.2-6.8-11.7-7.1c-0.7-0.6-0.7-3.1-0.6-30l0.1-29.4l5.7-8.6c3.1-4.7,5.9-8.6,6-8.6S174.1,32.7,177.2,37.4z M131.7,44.1c1.5,1.8,3.6,5,4.6,7.1c3.2,6.4,3.2,6.8,3.2,29.4c0,16.7,0.1,20.4,0.6,21.5c0.6,1,7.7,5.5,29.7,18.7l29.1,17.4v2.7v2.7h-20.4h-20.5l-3.4-8.7c-1.9-4.7-3.9-9.1-4.5-9.8l-1.1-1.2H128c-20,0-21.2,0-22.1,0.9c-0.6,0.5-2.6,4.8-4.5,9.8l-3.6,8.9H75.6H53.3l0.1-2.8l0.1-2.9l7.1-4c49.6-27.8,54.4-30.6,55.1-31.8c0.6-1.1,0.7-4.7,0.7-21.5c0-22.6,0-23,3.2-29.4c2.1-4.3,7-10.4,8.3-10.4C128.5,40.8,130,42.1,131.7,44.1z M96.4,153.5v1.8l-11.6,0.1l-11.7,0.1v-2.1v-2.1l11.7,0.1l11.6,0.1V153.5z M182.8,153.5v2.1l-11.6-0.1l-11.7-0.1l-0.1-1.3c-0.3-2.7-0.6-2.6,11.9-2.6h11.5V153.5z"/><path fill="#000000" d="M121.6,58.2c-1.9,1.6-2,4.1-0.2,5.8c1.1,1.1,1.5,1.1,6.6,1.1s5.5,0,6.6-1.1c1.8-1.7,1.7-4.2-0.2-5.8c-1.3-1.1-1.7-1.2-6.4-1.2S122.9,57.1,121.6,58.2z"/><path fill="#000000" d="M113.7,140.7c-1.1,0.9-9.3,24.7-9.3,26.9c0,1.3,0.7,2.4,2.2,3.1c1.4,0.8,41.3,0.8,42.7,0c1.4-0.7,2.1-1.8,2.2-3.1c0-2.2-8.2-25.9-9.3-26.9c-0.9-0.7-2.3-0.8-14.2-0.8S114.6,140,113.7,140.7z M139.4,155c1.3,4,2.4,7.5,2.4,7.8c0,0.4-3.3,0.6-14,0.6h-14l2.6-7.8l2.6-7.8h9h9L139.4,155z"/><path fill="#000000" d="M70.4,168.3l-1.4,1.2v5.4c0,5.1,0.1,5.6,1.1,6.7c1.4,1.7,3.9,1.8,5.6,0.2c1.1-1.1,1.2-1.3,1.2-6.6c0-5.8-0.2-6.5-2.2-7.6C73.1,166.8,71.9,167,70.4,168.3z"/><path fill="#000000" d="M93.8,168.4c-1.3,1.3-1.3,1.4-1.3,6.7c0,4.8,0.1,5.4,1.1,6.5c0.6,0.7,1.7,1.3,2.4,1.5c1.2,0.2,1.8,0,3-1.1c1.5-1.3,1.5-1.5,1.7-5.8c0.2-5.3-0.3-7.4-2.2-8.4C96.5,166.8,95.4,167,93.8,168.4z"/><path fill="#000000" d="M157.4,167.8c-1.8,0.9-2.3,3.3-2.2,8.4c0.2,4.2,0.2,4.3,1.8,5.7c1.2,1.1,1.8,1.3,3,1.1c0.8-0.1,1.9-0.8,2.5-1.5c0.9-1.1,1-1.6,1-6.5c0-5.3,0-5.3-1.3-6.7C160.7,167,159.3,166.8,157.4,167.8z"/><path fill="#000000" d="M181.2,167.7c-1.8,1.1-2,1.8-2.1,7.6c0,5.3,0,5.6,1.2,6.6c1.7,1.6,4.1,1.5,5.6-0.2c1-1.2,1.1-1.6,1.1-6.7v-5.4l-1.4-1.2C184,167,182.7,166.8,181.2,167.7z"/><path fill="#000000" d="M81.9,172.5c-1.1,1.1-1.1,1.5-1.1,6.7c0,5.5,0,5.5,1.3,6.6c1.9,1.6,4.1,1.5,5.6-0.3c1.1-1.3,1.2-1.7,1.2-6.2c0-6.6-0.8-8-4.3-8C83.5,171.3,82.6,171.6,81.9,172.5z"/><path fill="#000000" d="M169.1,171.6c-1.3,0.6-1.9,2.9-1.9,7.7c0,4.5,0.1,4.9,1.2,6.2c1.5,1.8,3.7,1.9,5.6,0.3c1.3-1.1,1.3-1.2,1.3-6.6c0-5.3,0-5.6-1.1-6.7C173,171.3,170.8,170.9,169.1,171.6z"/><path fill="#000000" d="M110.3,179.6c-0.5,0.3-2.8,1.3-5.3,2.3c-5.3,2.2-7.1,3.5-9.1,6.6l-1.6,2.4l-3.1,0.3c-8.1,0.6-17,6.2-21.6,13.5c-1.1,1.8-1.9,2.5-2.5,2.5c-1.9,0-6.2,1.5-10.2,3.5c-8.7,4.5-16.3,14.1-18.3,23.2c-0.3,1.4-0.6,2.9-0.8,3.3c-0.2,0.8-1.2,0.8-12.9,0.8H12.3l-1.1,1.2c-0.8,0.7-1.2,1.6-1.2,2.8c0,1.2,0.4,2,1.2,2.8l1.1,1.2H128h115.7l1.1-1.2c1.6-1.5,1.6-4,0-5.5l-1.1-1.2H231c-11.7,0-12.7,0-12.9-0.8c-0.1-0.4-0.5-1.9-0.8-3.3c-2.5-11.5-13.2-22.6-25-26c-1.4-0.4-3-0.7-3.5-0.7c-0.6,0-1.4-0.8-2.5-2.5c-4.7-7.2-13.6-12.8-21.6-13.5l-3.1-0.3l-1.6-2.4c-2-3.1-3.8-4.5-8.6-6.4c-2.1-0.9-4.5-1.9-5.3-2.3c-1.2-0.6-3.8-0.7-18.2-0.7C116.7,179.1,110.9,179.3,110.3,179.6z M123.9,191.8c0.1,4.3,0.3,4.9,1.2,5.9c1.4,1.4,4.3,1.4,5.7,0c0.9-0.9,1.1-1.6,1.2-5.9l0.2-4.8h5.1c5.1,0,5.2,0,9.1,1.9c5.4,2.6,6.8,3.8,8.1,6.7c0.6,1.3,1.5,2.7,2,2.9c0.5,0.3,2.7,0.5,4.8,0.5c8.7,0,15.4,4,19.2,11.5c1.7,3.3,2.6,4,6.2,4.4c6.2,0.7,13.6,4.5,17.3,8.9c3.2,3.9,6,10.1,6,13.3v1.1h-82h-82V237c0-1.5,1.3-5.7,2.5-8.2c3.7-7.3,12.3-13.1,20.8-14.1c3.5-0.4,4.5-1.1,6-4.2c3.6-7.4,10.6-11.7,19.4-11.7c2.1,0,4.3-0.2,4.8-0.5c0.5-0.2,1.4-1.5,2-2.9c1.3-3,2-3.6,7.3-6.4l4.3-2.2h5.4l5.3,0L123.9,191.8z"/><path fill="#000000" d="M113.8,191.8l-1.5,1.2v11.6c0,11.5,0,11.7,1.1,12.6c1.7,1.6,4,1.6,5.6-0.1l1.2-1.1v-11.3c0-11.1,0-11.3-1-12.4C117.5,190.4,115.5,190.3,113.8,191.8z"/><path fill="#000000" d="M138.3,191.1c-2.2,0.9-2.5,2-2.5,9.8c0,7.1,0,7.3,1.2,8.4c0.7,0.8,1.6,1.2,2.8,1.2s2-0.4,2.8-1.2c1.2-1.1,1.2-1.2,1.2-8.7V193l-1.4-1.2C140.8,190.6,139.9,190.4,138.3,191.1z"/><path fill="#000000" d="M126.4,206.9c-2.3,1-2.5,2.2-2.5,11.8v8.8l1.3,1.3c1.7,1.7,3.6,1.8,5.4,0.2l1.3-1.1l0.1-8.9c0.2-10-0.1-11.2-2.5-12.2C127.8,206.2,128.1,206.2,126.4,206.9z"/></g></g></g>
</svg>