<?xml version="1.0" encoding="utf-8"?>
<!-- Svg Vector Icons : http://www.onlinewebfonts.com/icon -->
<!DOCTYPE svg PUBLIC "-//W3C//DTD SVG 1.1//EN" "http://www.w3.org/Graphics/SVG/1.1/DTD/svg11.dtd">
<svg version="1.1" xmlns="http://www.w3.org/2000/svg" xmlns:xlink="http://www.w3.org/1999/xlink" x="0px" y="0px" viewBox="0 0 256 256" enable-background="new 0 0 256 256" xml:space="preserve">
<metadata> Svg Vector Icons : http://www.onlinewebfonts.com/icon </metadata>
<g><g><path fill="#000000" d="M213.7,60.9c0-3.6-1.4-6.6-4.1-9.2c-2.8-2.6-6-3.9-9.8-3.9s-7.1,1.3-9.8,3.9c-2.8,2.6-4.1,5.7-4.1,9.2c0,3.6,1.4,6.6,4.1,9.2c2.8,2.6,6,3.9,9.8,3.9c3.8,0,7.1-1.3,9.8-3.9C212.2,67.6,213.7,64.5,213.7,60.9z M246,21.9c0,22.5-3.7,42-11.1,58.5c-7.4,16.5-19.6,32.8-36.5,48.8c-7.8,7.1-17.2,15.1-28.2,23.8l-2.8,51.2c-0.2,1.4-0.9,2.7-2.3,3.6L109.6,238c-0.7,0.3-1.5,0.5-2.3,0.5c-1.2,0-2.3-0.4-3.4-1.2l-9.3-8.7c-1.2-1.1-1.5-2.5-1-4.1l12.2-37.6L65.4,149l-40.1,11.4c-0.2,0.2-0.6,0.2-1.3,0.2c-1.2,0-2.2-0.4-3.1-1.2l-9.3-8.7c-1.7-1.8-2-3.6-0.8-5.3l32.3-51.9c1-1.3,2.3-2,3.9-2.2l54.6-2.7c9.3-10.4,17.8-19.2,25.4-26.4c18.1-16.8,35.4-28.5,51.8-34.9c16.4-6.5,37.2-9.7,62.4-9.7c1.2,0,2.3,0.5,3.4,1.4C245.5,19.9,246,20.9,246,21.9L246,21.9z"/></g></g>
</svg>